<?xml version="1.0" encoding="windows-1252" standalone="no"?>
<svg xmlns="http://www.w3.org/2000/svg" xmlns:xlink="http://www.w3.org/1999/xlink" contentStyleType="text/css" height="923px" preserveAspectRatio="none" style="width:697px;height:923px;background:#1B1B1B;" version="1.1" viewBox="0 0 697 923" width="697px" zoomAndPan="magnify"><defs/><g><rect fill="#1B1B1B" height="923" style="stroke:none;stroke-width:1.0;" width="697" x="0" y="0"/><text fill="#FFFFFF" font-family="sans-serif" font-size="14" font-weight="bold" lengthAdjust="spacing" textLength="58" x="316.5" y="32.9951">jamilek</text><text fill="#FFFFFF" font-family="sans-serif" font-size="14" font-weight="bold" lengthAdjust="spacing" textLength="81" x="10" y="60.292">document</text><line style="stroke:#E7E7E7;stroke-width:1.5;" x1="40" x2="40" y1="102.7422" y2="102.7422"/><path d="M48,94.7422 C48,100.7422 46,102.7422 40,102.7422 " fill="none" style="stroke:#E7E7E7;stroke-width:1.5;"/><line style="stroke:#E7E7E7;stroke-width:1.5;" x1="48" x2="48" y1="86.5938" y2="94.7422"/><path d="M48,86.5938 C48,80.5938 50,78.5938 56,78.5938 " fill="none" style="stroke:#E7E7E7;stroke-width:1.5;"/><line style="stroke:#E7E7E7;stroke-width:1.5;" x1="56" x2="146" y1="78.5938" y2="78.5938"/><path d="M90,78.5938 L90,75.5938 L96,78.5938 L90,81.5938 L90,78.5938 " fill="#E7E7E7" style="stroke:#E7E7E7;stroke-width:1.5;"/><path d="M154,94.7422 C154,100.7422 156,102.7422 162,102.7422 " fill="none" style="stroke:#E7E7E7;stroke-width:1.5;"/><line style="stroke:#E7E7E7;stroke-width:1.5;" x1="154" x2="154" y1="86.5938" y2="94.7422"/><path d="M146,78.5938 C152,78.5938 154,80.5938 154,86.5938 " fill="none" style="stroke:#E7E7E7;stroke-width:1.5;"/><line style="stroke:#E7E7E7;stroke-width:1.5;" x1="40" x2="55" y1="102.7422" y2="102.7422"/><line style="stroke:#E7E7E7;stroke-width:1.5;" x1="147" x2="162" y1="102.7422" y2="102.7422"/><rect fill="#313139" height="26.2969" rx="5" ry="5" style="stroke:#E7E7E7;stroke-width:1.5;" width="92" x="55" y="89.5938"/><text fill="#FFFFFF" font-family="sans-serif" font-size="14" lengthAdjust="spacing" textLength="82" x="60" y="107.5889">whitespace</text><line style="stroke:#E7E7E7;stroke-width:1.5;" x1="162" x2="182" y1="102.7422" y2="102.7422"/><rect fill="#313139" height="26.2969" rx="5" ry="5" style="stroke:#E7E7E7;stroke-width:1.5;" width="57" x="182" y="89.5938"/><text fill="#FFFFFF" font-family="sans-serif" font-size="14" lengthAdjust="spacing" textLength="47" x="187" y="107.5889">object</text><line style="stroke:#E7E7E7;stroke-width:1.5;" x1="239" x2="259" y1="102.7422" y2="102.7422"/><path d="M267,94.7422 C267,100.7422 265,102.7422 259,102.7422 " fill="none" style="stroke:#E7E7E7;stroke-width:1.5;"/><line style="stroke:#E7E7E7;stroke-width:1.5;" x1="267" x2="267" y1="86.5938" y2="94.7422"/><path d="M267,86.5938 C267,80.5938 269,78.5938 275,78.5938 " fill="none" style="stroke:#E7E7E7;stroke-width:1.5;"/><line style="stroke:#E7E7E7;stroke-width:1.5;" x1="275" x2="365" y1="78.5938" y2="78.5938"/><path d="M309,78.5938 L309,75.5938 L315,78.5938 L309,81.5938 L309,78.5938 " fill="#E7E7E7" style="stroke:#E7E7E7;stroke-width:1.5;"/><path d="M373,94.7422 C373,100.7422 375,102.7422 381,102.7422 " fill="none" style="stroke:#E7E7E7;stroke-width:1.5;"/><line style="stroke:#E7E7E7;stroke-width:1.5;" x1="373" x2="373" y1="86.5938" y2="94.7422"/><path d="M365,78.5938 C371,78.5938 373,80.5938 373,86.5938 " fill="none" style="stroke:#E7E7E7;stroke-width:1.5;"/><line style="stroke:#E7E7E7;stroke-width:1.5;" x1="259" x2="274" y1="102.7422" y2="102.7422"/><line style="stroke:#E7E7E7;stroke-width:1.5;" x1="366" x2="381" y1="102.7422" y2="102.7422"/><rect fill="#313139" height="26.2969" rx="5" ry="5" style="stroke:#E7E7E7;stroke-width:1.5;" width="92" x="274" y="89.5938"/><text fill="#FFFFFF" font-family="sans-serif" font-size="14" lengthAdjust="spacing" textLength="82" x="279" y="107.5889">whitespace</text><ellipse cx="14" cy="102.7422" fill="none" rx="4" ry="4" style="stroke:#E7E7E7;stroke-width:2.0;"/><ellipse cx="411" cy="102.7422" fill="#E7E7E7" rx="4" ry="4" style="stroke:#E7E7E7;stroke-width:1.0;"/><line style="stroke:#E7E7E7;stroke-width:1.5;" x1="18" x2="40" y1="102.7422" y2="102.7422"/><line style="stroke:#E7E7E7;stroke-width:1.5;" x1="381" x2="407" y1="102.7422" y2="102.7422"/><path d="M392,102.7422 L392,99.7422 L398,102.7422 L392,105.7422 L392,102.7422 " fill="#E7E7E7" style="stroke:#E7E7E7;stroke-width:1.5;"/><text fill="#FFFFFF" font-family="sans-serif" font-size="14" font-weight="bold" lengthAdjust="spacing" textLength="51" x="10" y="143.8857">object</text><line style="stroke:#E7E7E7;stroke-width:1.5;" x1="40" x2="40" y1="198.3359" y2="198.3359"/><rect fill="none" height="26.2969" style="stroke:#E7E7E7;stroke-width:0.5;" width="19" x="40" y="185.1875"/><text fill="#FFFFFF" font-family="sans-serif" font-size="14" lengthAdjust="spacing" textLength="9" x="45" y="203.1826">{</text><line style="stroke:#E7E7E7;stroke-width:1.5;" x1="59" x2="79" y1="198.3359" y2="198.3359"/><rect fill="#313139" height="26.2969" rx="5" ry="5" style="stroke:#E7E7E7;stroke-width:1.5;" width="92" x="79" y="185.1875"/><text fill="#FFFFFF" font-family="sans-serif" font-size="14" lengthAdjust="spacing" textLength="82" x="84" y="203.1826">whitespace</text><line style="stroke:#E7E7E7;stroke-width:1.5;" x1="171" x2="191" y1="198.3359" y2="198.3359"/><path d="M199,190.3359 C199,196.3359 197,198.3359 191,198.3359 " fill="none" style="stroke:#E7E7E7;stroke-width:1.5;"/><line style="stroke:#E7E7E7;stroke-width:1.5;" x1="199" x2="199" y1="170.1875" y2="190.3359"/><path d="M199,170.1875 C199,164.1875 201,162.1875 207,162.1875 " fill="none" style="stroke:#E7E7E7;stroke-width:1.5;"/><line style="stroke:#E7E7E7;stroke-width:1.5;" x1="207" x2="597" y1="162.1875" y2="162.1875"/><path d="M361,162.1875 L361,159.1875 L367,162.1875 L361,165.1875 L361,162.1875 " fill="#E7E7E7" style="stroke:#E7E7E7;stroke-width:1.5;"/><path d="M605,190.3359 C605,196.3359 607,198.3359 613,198.3359 " fill="none" style="stroke:#E7E7E7;stroke-width:1.5;"/><line style="stroke:#E7E7E7;stroke-width:1.5;" x1="605" x2="605" y1="170.1875" y2="190.3359"/><path d="M597,162.1875 C603,162.1875 605,164.1875 605,170.1875 " fill="none" style="stroke:#E7E7E7;stroke-width:1.5;"/><line style="stroke:#E7E7E7;stroke-width:1.5;" x1="191" x2="206" y1="198.3359" y2="198.3359"/><line style="stroke:#E7E7E7;stroke-width:1.5;" x1="598" x2="613" y1="198.3359" y2="198.3359"/><path d="M214,190.3359 C214,196.3359 216,198.3359 222,198.3359 " fill="none" style="stroke:#E7E7E7;stroke-width:1.5;"/><line style="stroke:#E7E7E7;stroke-width:1.5;" x1="214" x2="214" y1="186.1875" y2="190.3359"/><path d="M214,186.1875 C214,180.1875 216,178.1875 222,178.1875 " fill="none" style="stroke:#E7E7E7;stroke-width:1.5;"/><line style="stroke:#E7E7E7;stroke-width:1.5;" x1="221" x2="583" y1="178.1875" y2="178.1875"/><path d="M436.2,178.1875 L436.2,175.1875 L430.2,178.1875 L436.2,181.1875 L436.2,178.1875 " fill="#E7E7E7" style="stroke:#E7E7E7;stroke-width:1.5;"/><path d="M590,190.3359 C590,196.3359 588,198.3359 582,198.3359 " fill="none" style="stroke:#E7E7E7;stroke-width:1.5;"/><line style="stroke:#E7E7E7;stroke-width:1.5;" x1="590" x2="590" y1="186.1875" y2="190.3359"/><path d="M582,178.1875 C588,178.1875 590,180.1875 590,186.1875 " fill="none" style="stroke:#E7E7E7;stroke-width:1.5;"/><line style="stroke:#E7E7E7;stroke-width:1.5;" x1="206" x2="221" y1="198.3359" y2="198.3359"/><line style="stroke:#E7E7E7;stroke-width:1.5;" x1="583" x2="598" y1="198.3359" y2="198.3359"/><line style="stroke:#E7E7E7;stroke-width:1.5;" x1="221" x2="221" y1="198.3359" y2="198.3359"/><rect fill="#313139" height="26.2969" rx="5" ry="5" style="stroke:#E7E7E7;stroke-width:1.5;" width="36" x="221" y="185.1875"/><text fill="#FFFFFF" font-family="sans-serif" font-size="14" lengthAdjust="spacing" textLength="26" x="226" y="203.1826">key</text><line style="stroke:#E7E7E7;stroke-width:1.5;" x1="257" x2="277" y1="198.3359" y2="198.3359"/><rect fill="none" height="26.2969" style="stroke:#E7E7E7;stroke-width:0.5;" width="15" x="277" y="185.1875"/><text fill="#FFFFFF" font-family="sans-serif" font-size="14" lengthAdjust="spacing" textLength="5" x="282" y="203.1826">:</text><line style="stroke:#E7E7E7;stroke-width:1.5;" x1="292" x2="312" y1="198.3359" y2="198.3359"/><rect fill="#313139" height="26.2969" rx="5" ry="5" style="stroke:#E7E7E7;stroke-width:1.5;" width="92" x="312" y="185.1875"/><text fill="#FFFFFF" font-family="sans-serif" font-size="14" lengthAdjust="spacing" textLength="82" x="317" y="203.1826">whitespace</text><line style="stroke:#E7E7E7;stroke-width:1.5;" x1="404" x2="424" y1="198.3359" y2="198.3359"/><rect fill="#313139" height="26.2969" rx="5" ry="5" style="stroke:#E7E7E7;stroke-width:1.5;" width="47" x="424" y="185.1875"/><text fill="#FFFFFF" font-family="sans-serif" font-size="14" lengthAdjust="spacing" textLength="37" x="429" y="203.1826">value</text><line style="stroke:#E7E7E7;stroke-width:1.5;" x1="471" x2="491" y1="198.3359" y2="198.3359"/><rect fill="#313139" height="26.2969" rx="5" ry="5" style="stroke:#E7E7E7;stroke-width:1.5;" width="92" x="491" y="185.1875"/><text fill="#FFFFFF" font-family="sans-serif" font-size="14" lengthAdjust="spacing" textLength="82" x="496" y="203.1826">whitespace</text><line style="stroke:#E7E7E7;stroke-width:1.5;" x1="613" x2="633" y1="198.3359" y2="198.3359"/><rect fill="none" height="26.2969" style="stroke:#E7E7E7;stroke-width:0.5;" width="19" x="633" y="185.1875"/><text fill="#FFFFFF" font-family="sans-serif" font-size="14" lengthAdjust="spacing" textLength="9" x="638" y="203.1826">}</text><ellipse cx="14" cy="198.3359" fill="none" rx="4" ry="4" style="stroke:#E7E7E7;stroke-width:2.0;"/><ellipse cx="682" cy="198.3359" fill="#E7E7E7" rx="4" ry="4" style="stroke:#E7E7E7;stroke-width:1.0;"/><line style="stroke:#E7E7E7;stroke-width:1.5;" x1="18" x2="40" y1="198.3359" y2="198.3359"/><line style="stroke:#E7E7E7;stroke-width:1.5;" x1="652" x2="678" y1="198.3359" y2="198.3359"/><path d="M663,198.3359 L663,195.3359 L669,198.3359 L663,201.3359 L663,198.3359 " fill="#E7E7E7" style="stroke:#E7E7E7;stroke-width:1.5;"/><text fill="#FFFFFF" font-family="sans-serif" font-size="14" font-weight="bold" lengthAdjust="spacing" textLength="43" x="10" y="239.4795">array</text><line style="stroke:#E7E7E7;stroke-width:1.5;" x1="40" x2="40" y1="293.9297" y2="293.9297"/><rect fill="none" height="26.2969" style="stroke:#E7E7E7;stroke-width:0.5;" width="15" x="40" y="280.7813"/><text fill="#FFFFFF" font-family="sans-serif" font-size="14" lengthAdjust="spacing" textLength="5" x="45" y="298.7764">[</text><line style="stroke:#E7E7E7;stroke-width:1.5;" x1="55" x2="75" y1="293.9297" y2="293.9297"/><rect fill="#313139" height="26.2969" rx="5" ry="5" style="stroke:#E7E7E7;stroke-width:1.5;" width="92" x="75" y="280.7813"/><text fill="#FFFFFF" font-family="sans-serif" font-size="14" lengthAdjust="spacing" textLength="82" x="80" y="298.7764">whitespace</text><line style="stroke:#E7E7E7;stroke-width:1.5;" x1="167" x2="187" y1="293.9297" y2="293.9297"/><path d="M195,285.9297 C195,291.9297 193,293.9297 187,293.9297 " fill="none" style="stroke:#E7E7E7;stroke-width:1.5;"/><line style="stroke:#E7E7E7;stroke-width:1.5;" x1="195" x2="195" y1="265.7813" y2="285.9297"/><path d="M195,265.7813 C195,259.7813 197,257.7813 203,257.7813 " fill="none" style="stroke:#E7E7E7;stroke-width:1.5;"/><line style="stroke:#E7E7E7;stroke-width:1.5;" x1="203" x2="381" y1="257.7813" y2="257.7813"/><path d="M272.2,257.7813 L272.2,254.7813 L278.2,257.7813 L272.2,260.7813 L272.2,257.7813 " fill="#E7E7E7" style="stroke:#E7E7E7;stroke-width:1.5;"/><path d="M389,285.9297 C389,291.9297 391,293.9297 397,293.9297 " fill="none" style="stroke:#E7E7E7;stroke-width:1.5;"/><line style="stroke:#E7E7E7;stroke-width:1.5;" x1="389" x2="389" y1="265.7813" y2="285.9297"/><path d="M381,257.7813 C387,257.7813 389,259.7813 389,265.7813 " fill="none" style="stroke:#E7E7E7;stroke-width:1.5;"/><line style="stroke:#E7E7E7;stroke-width:1.5;" x1="187" x2="202" y1="293.9297" y2="293.9297"/><line style="stroke:#E7E7E7;stroke-width:1.5;" x1="382" x2="397" y1="293.9297" y2="293.9297"/><path d="M210,285.9297 C210,291.9297 212,293.9297 218,293.9297 " fill="none" style="stroke:#E7E7E7;stroke-width:1.5;"/><line style="stroke:#E7E7E7;stroke-width:1.5;" x1="210" x2="210" y1="281.7813" y2="285.9297"/><path d="M210,281.7813 C210,275.7813 212,273.7813 218,273.7813 " fill="none" style="stroke:#E7E7E7;stroke-width:1.5;"/><line style="stroke:#E7E7E7;stroke-width:1.5;" x1="217" x2="367" y1="273.7813" y2="273.7813"/><path d="M305,273.7813 L305,270.7813 L299,273.7813 L305,276.7813 L305,273.7813 " fill="#E7E7E7" style="stroke:#E7E7E7;stroke-width:1.5;"/><path d="M374,285.9297 C374,291.9297 372,293.9297 366,293.9297 " fill="none" style="stroke:#E7E7E7;stroke-width:1.5;"/><line style="stroke:#E7E7E7;stroke-width:1.5;" x1="374" x2="374" y1="281.7813" y2="285.9297"/><path d="M366,273.7813 C372,273.7813 374,275.7813 374,281.7813 " fill="none" style="stroke:#E7E7E7;stroke-width:1.5;"/><line style="stroke:#E7E7E7;stroke-width:1.5;" x1="202" x2="217" y1="293.9297" y2="293.9297"/><line style="stroke:#E7E7E7;stroke-width:1.5;" x1="367" x2="382" y1="293.9297" y2="293.9297"/><line style="stroke:#E7E7E7;stroke-width:1.5;" x1="217" x2="217" y1="293.9297" y2="293.9297"/><rect fill="#313139" height="26.2969" rx="5" ry="5" style="stroke:#E7E7E7;stroke-width:1.5;" width="47" x="217" y="280.7813"/><text fill="#FFFFFF" font-family="sans-serif" font-size="14" lengthAdjust="spacing" textLength="37" x="222" y="298.7764">value</text><line style="stroke:#E7E7E7;stroke-width:1.5;" x1="264" x2="284" y1="293.9297" y2="293.9297"/><rect fill="#313139" height="26.2969" rx="5" ry="5" style="stroke:#E7E7E7;stroke-width:1.5;" width="83" x="284" y="280.7813"/><text fill="#FFFFFF" font-family="sans-serif" font-size="14" lengthAdjust="spacing" textLength="73" x="289" y="298.7764">witespace</text><line style="stroke:#E7E7E7;stroke-width:1.5;" x1="397" x2="417" y1="293.9297" y2="293.9297"/><rect fill="none" height="26.2969" style="stroke:#E7E7E7;stroke-width:0.5;" width="15" x="417" y="280.7813"/><text fill="#FFFFFF" font-family="sans-serif" font-size="14" lengthAdjust="spacing" textLength="5" x="422" y="298.7764">]</text><ellipse cx="14" cy="293.9297" fill="none" rx="4" ry="4" style="stroke:#E7E7E7;stroke-width:2.0;"/><ellipse cx="462" cy="293.9297" fill="#E7E7E7" rx="4" ry="4" style="stroke:#E7E7E7;stroke-width:1.0;"/><line style="stroke:#E7E7E7;stroke-width:1.5;" x1="18" x2="40" y1="293.9297" y2="293.9297"/><line style="stroke:#E7E7E7;stroke-width:1.5;" x1="432" x2="458" y1="293.9297" y2="293.9297"/><path d="M443,293.9297 L443,290.9297 L449,293.9297 L443,296.9297 L443,293.9297 " fill="#E7E7E7" style="stroke:#E7E7E7;stroke-width:1.5;"/><text fill="#FFFFFF" font-family="sans-serif" font-size="14" font-weight="bold" lengthAdjust="spacing" textLength="27" x="10" y="335.0732">key</text><path d="M48,365.5234 C48,371.5234 50,373.5234 56,373.5234 " fill="none" style="stroke:#E7E7E7;stroke-width:1.5;"/><line style="stroke:#E7E7E7;stroke-width:1.5;" x1="48" x2="48" y1="361.375" y2="365.5234"/><path d="M48,361.375 C48,355.375 50,353.375 56,353.375 " fill="none" style="stroke:#E7E7E7;stroke-width:1.5;"/><line style="stroke:#E7E7E7;stroke-width:1.5;" x1="55" x2="139" y1="353.375" y2="353.375"/><path d="M103.4,353.375 L103.4,350.375 L97.4,353.375 L103.4,356.375 L103.4,353.375 " fill="#E7E7E7" style="stroke:#E7E7E7;stroke-width:1.5;"/><path d="M146,365.5234 C146,371.5234 144,373.5234 138,373.5234 " fill="none" style="stroke:#E7E7E7;stroke-width:1.5;"/><line style="stroke:#E7E7E7;stroke-width:1.5;" x1="146" x2="146" y1="361.375" y2="365.5234"/><path d="M138,353.375 C144,353.375 146,355.375 146,361.375 " fill="none" style="stroke:#E7E7E7;stroke-width:1.5;"/><line style="stroke:#E7E7E7;stroke-width:1.5;" x1="40" x2="55" y1="373.5234" y2="373.5234"/><line style="stroke:#E7E7E7;stroke-width:1.5;" x1="139" x2="154" y1="373.5234" y2="373.5234"/><rect fill="#313139" height="26.2969" rx="5" ry="5" style="stroke:#E7E7E7;stroke-width:1.5;" width="32" x="79" y="360.375"/><text fill="#FFFFFF" font-family="sans-serif" font-size="14" lengthAdjust="spacing" textLength="22" x="84" y="378.3701">a-z</text><line style="stroke:#E7E7E7;stroke-width:1.5;" x1="55" x2="79" y1="373.5234" y2="373.5234"/><line style="stroke:#E7E7E7;stroke-width:1.5;" x1="111" x2="139" y1="373.5234" y2="373.5234"/><rect fill="#313139" height="26.2969" rx="5" ry="5" style="stroke:#E7E7E7;stroke-width:1.5;" width="36" x="79" y="396.6719"/><text fill="#FFFFFF" font-family="sans-serif" font-size="14" lengthAdjust="spacing" textLength="26" x="84" y="414.667">A-Z</text><path d="M67,397.8203 C67,406.8203 70,409.8203 79,409.8203 " fill="none" style="stroke:#E7E7E7;stroke-width:1.5;"/><line style="stroke:#E7E7E7;stroke-width:1.5;" x1="115" x2="115" y1="409.8203" y2="409.8203"/><path d="M127,397.8203 C127,406.8203 124,409.8203 115,409.8203 " fill="none" style="stroke:#E7E7E7;stroke-width:1.5;"/><rect fill="#313139" height="26.2969" rx="5" ry="5" style="stroke:#E7E7E7;stroke-width:1.5;" width="34" x="79" y="432.9688"/><text fill="#FFFFFF" font-family="sans-serif" font-size="14" lengthAdjust="spacing" textLength="24" x="84" y="450.9639">0-9</text><path d="M67,434.1172 C67,443.1172 70,446.1172 79,446.1172 " fill="none" style="stroke:#E7E7E7;stroke-width:1.5;"/><line style="stroke:#E7E7E7;stroke-width:1.5;" x1="113" x2="115" y1="446.1172" y2="446.1172"/><path d="M127,434.1172 C127,443.1172 124,446.1172 115,446.1172 " fill="none" style="stroke:#E7E7E7;stroke-width:1.5;"/><rect fill="none" height="26.2969" style="stroke:#E7E7E7;stroke-width:0.5;" width="17" x="79" y="469.2656"/><text fill="#FFFFFF" font-family="sans-serif" font-size="14" lengthAdjust="spacing" textLength="7" x="84" y="487.2607">_</text><line style="stroke:#E7E7E7;stroke-width:1.5;" x1="96" x2="115" y1="482.4141" y2="482.4141"/><path d="M67,470.4141 C67,479.4141 70,482.4141 79,482.4141 " fill="none" style="stroke:#E7E7E7;stroke-width:1.5;"/><line style="stroke:#E7E7E7;stroke-width:1.5;" x1="67" x2="67" y1="385.5234" y2="470.4141"/><path d="M55,373.5234 C64,373.5234 67,376.5234 67,385.5234 " fill="none" style="stroke:#E7E7E7;stroke-width:1.5;"/><path d="M127,470.4141 C127,479.4141 124,482.4141 115,482.4141 " fill="none" style="stroke:#E7E7E7;stroke-width:1.5;"/><line style="stroke:#E7E7E7;stroke-width:1.5;" x1="127" x2="127" y1="385.5234" y2="470.4141"/><path d="M127,385.5234 C127,376.5234 130,373.5234 139,373.5234 " fill="none" style="stroke:#E7E7E7;stroke-width:1.5;"/><ellipse cx="14" cy="373.5234" fill="none" rx="4" ry="4" style="stroke:#E7E7E7;stroke-width:2.0;"/><ellipse cx="184" cy="373.5234" fill="#E7E7E7" rx="4" ry="4" style="stroke:#E7E7E7;stroke-width:1.0;"/><line style="stroke:#E7E7E7;stroke-width:1.5;" x1="18" x2="40" y1="373.5234" y2="373.5234"/><line style="stroke:#E7E7E7;stroke-width:1.5;" x1="154" x2="180" y1="373.5234" y2="373.5234"/><path d="M165,373.5234 L165,370.5234 L171,373.5234 L165,376.5234 L165,373.5234 " fill="#E7E7E7" style="stroke:#E7E7E7;stroke-width:1.5;"/><text fill="#FFFFFF" font-family="sans-serif" font-size="14" font-weight="bold" lengthAdjust="spacing" textLength="43" x="10" y="523.5576">value</text><rect fill="#313139" height="26.2969" rx="5" ry="5" style="stroke:#E7E7E7;stroke-width:1.5;" width="57" x="64" y="536.8594"/><text fill="#FFFFFF" font-family="sans-serif" font-size="14" lengthAdjust="spacing" textLength="47" x="69" y="554.8545">object</text><line style="stroke:#E7E7E7;stroke-width:1.5;" x1="40" x2="64" y1="550.0078" y2="550.0078"/><line style="stroke:#E7E7E7;stroke-width:1.5;" x1="121" x2="154" y1="550.0078" y2="550.0078"/><rect fill="#313139" height="26.2969" rx="5" ry="5" style="stroke:#E7E7E7;stroke-width:1.5;" width="46" x="64" y="573.1563"/><text fill="#FFFFFF" font-family="sans-serif" font-size="14" lengthAdjust="spacing" textLength="36" x="69" y="591.1514">array</text><path d="M52,574.3047 C52,583.3047 55,586.3047 64,586.3047 " fill="none" style="stroke:#E7E7E7;stroke-width:1.5;"/><line style="stroke:#E7E7E7;stroke-width:1.5;" x1="110" x2="130" y1="586.3047" y2="586.3047"/><path d="M142,574.3047 C142,583.3047 139,586.3047 130,586.3047 " fill="none" style="stroke:#E7E7E7;stroke-width:1.5;"/><rect fill="#313139" height="26.2969" rx="5" ry="5" style="stroke:#E7E7E7;stroke-width:1.5;" width="52" x="64" y="609.4531"/><text fill="#FFFFFF" font-family="sans-serif" font-size="14" lengthAdjust="spacing" textLength="42" x="69" y="627.4482">string</text><path d="M52,610.6016 C52,619.6016 55,622.6016 64,622.6016 " fill="none" style="stroke:#E7E7E7;stroke-width:1.5;"/><line style="stroke:#E7E7E7;stroke-width:1.5;" x1="116" x2="130" y1="622.6016" y2="622.6016"/><path d="M142,610.6016 C142,619.6016 139,622.6016 130,622.6016 " fill="none" style="stroke:#E7E7E7;stroke-width:1.5;"/><rect fill="#313139" height="26.2969" rx="5" ry="5" style="stroke:#E7E7E7;stroke-width:1.5;" width="66" x="64" y="645.75"/><text fill="#FFFFFF" font-family="sans-serif" font-size="14" lengthAdjust="spacing" textLength="56" x="69" y="663.7451">number</text><path d="M52,646.8984 C52,655.8984 55,658.8984 64,658.8984 " fill="none" style="stroke:#E7E7E7;stroke-width:1.5;"/><line style="stroke:#E7E7E7;stroke-width:1.5;" x1="130" x2="130" y1="658.8984" y2="658.8984"/><path d="M142,646.8984 C142,655.8984 139,658.8984 130,658.8984 " fill="none" style="stroke:#E7E7E7;stroke-width:1.5;"/><rect fill="#313139" height="26.2969" rx="5" ry="5" style="stroke:#E7E7E7;stroke-width:1.5;" width="40" x="64" y="682.0469"/><text fill="#FFFFFF" font-family="sans-serif" font-size="14" lengthAdjust="spacing" textLength="30" x="69" y="700.042">true</text><path d="M52,683.1953 C52,692.1953 55,695.1953 64,695.1953 " fill="none" style="stroke:#E7E7E7;stroke-width:1.5;"/><line style="stroke:#E7E7E7;stroke-width:1.5;" x1="104" x2="130" y1="695.1953" y2="695.1953"/><path d="M115,695.1953 L115,692.1953 L121,695.1953 L115,698.1953 L115,695.1953 " fill="#E7E7E7" style="stroke:#E7E7E7;stroke-width:1.5;"/><path d="M142,683.1953 C142,692.1953 139,695.1953 130,695.1953 " fill="none" style="stroke:#E7E7E7;stroke-width:1.5;"/><rect fill="#313139" height="26.2969" rx="5" ry="5" style="stroke:#E7E7E7;stroke-width:1.5;" width="44" x="64" y="718.3438"/><text fill="#FFFFFF" font-family="sans-serif" font-size="14" lengthAdjust="spacing" textLength="34" x="69" y="736.3389">false</text><line style="stroke:#E7E7E7;stroke-width:1.5;" x1="108" x2="130" y1="731.4922" y2="731.4922"/><path d="M52,719.4922 C52,728.4922 55,731.4922 64,731.4922 " fill="none" style="stroke:#E7E7E7;stroke-width:1.5;"/><line style="stroke:#E7E7E7;stroke-width:1.5;" x1="52" x2="52" y1="562.0078" y2="719.4922"/><path d="M40,550.0078 C49,550.0078 52,553.0078 52,562.0078 " fill="none" style="stroke:#E7E7E7;stroke-width:1.5;"/><path d="M142,719.4922 C142,728.4922 139,731.4922 130,731.4922 " fill="none" style="stroke:#E7E7E7;stroke-width:1.5;"/><line style="stroke:#E7E7E7;stroke-width:1.5;" x1="142" x2="142" y1="562.0078" y2="719.4922"/><path d="M142,562.0078 C142,553.0078 145,550.0078 154,550.0078 " fill="none" style="stroke:#E7E7E7;stroke-width:1.5;"/><ellipse cx="14" cy="550.0078" fill="none" rx="4" ry="4" style="stroke:#E7E7E7;stroke-width:2.0;"/><ellipse cx="184" cy="550.0078" fill="#E7E7E7" rx="4" ry="4" style="stroke:#E7E7E7;stroke-width:1.0;"/><line style="stroke:#E7E7E7;stroke-width:1.5;" x1="18" x2="40" y1="550.0078" y2="550.0078"/><line style="stroke:#E7E7E7;stroke-width:1.5;" x1="154" x2="180" y1="550.0078" y2="550.0078"/><path d="M165,550.0078 L165,547.0078 L171,550.0078 L165,553.0078 L165,550.0078 " fill="#E7E7E7" style="stroke:#E7E7E7;stroke-width:1.5;"/><text fill="#FFFFFF" font-family="sans-serif" font-size="14" font-weight="bold" lengthAdjust="spacing" textLength="92" x="10" y="772.6357">whitespace</text><path d="M48,803.0859 C48,809.0859 50,811.0859 56,811.0859 " fill="none" style="stroke:#E7E7E7;stroke-width:1.5;"/><line style="stroke:#E7E7E7;stroke-width:1.5;" x1="48" x2="48" y1="798.9375" y2="803.0859"/><path d="M48,798.9375 C48,792.9375 50,790.9375 56,790.9375 " fill="none" style="stroke:#E7E7E7;stroke-width:1.5;"/><line style="stroke:#E7E7E7;stroke-width:1.5;" x1="55" x2="168" y1="790.9375" y2="790.9375"/><path d="M120.8,790.9375 L120.8,787.9375 L114.8,790.9375 L120.8,793.9375 L120.8,790.9375 " fill="#E7E7E7" style="stroke:#E7E7E7;stroke-width:1.5;"/><path d="M175,803.0859 C175,809.0859 173,811.0859 167,811.0859 " fill="none" style="stroke:#E7E7E7;stroke-width:1.5;"/><line style="stroke:#E7E7E7;stroke-width:1.5;" x1="175" x2="175" y1="798.9375" y2="803.0859"/><path d="M167,790.9375 C173,790.9375 175,792.9375 175,798.9375 " fill="none" style="stroke:#E7E7E7;stroke-width:1.5;"/><line style="stroke:#E7E7E7;stroke-width:1.5;" x1="40" x2="55" y1="811.0859" y2="811.0859"/><line style="stroke:#E7E7E7;stroke-width:1.5;" x1="168" x2="183" y1="811.0859" y2="811.0859"/><rect fill="#313139" height="26.2969" rx="5" ry="5" style="stroke:#E7E7E7;stroke-width:1.5;" width="52" x="79" y="797.9375"/><text fill="#FFFFFF" font-family="sans-serif" font-size="14" lengthAdjust="spacing" textLength="42" x="84" y="815.9326">space</text><line style="stroke:#E7E7E7;stroke-width:1.5;" x1="55" x2="79" y1="811.0859" y2="811.0859"/><line style="stroke:#E7E7E7;stroke-width:1.5;" x1="131" x2="168" y1="811.0859" y2="811.0859"/><rect fill="#313139" height="26.2969" rx="5" ry="5" style="stroke:#E7E7E7;stroke-width:1.5;" width="35" x="79" y="834.2344"/><text fill="#FFFFFF" font-family="sans-serif" font-size="14" lengthAdjust="spacing" textLength="25" x="84" y="852.2295">tab</text><path d="M67,835.3828 C67,844.3828 70,847.3828 79,847.3828 " fill="none" style="stroke:#E7E7E7;stroke-width:1.5;"/><line style="stroke:#E7E7E7;stroke-width:1.5;" x1="114" x2="144" y1="847.3828" y2="847.3828"/><path d="M127,847.3828 L127,844.3828 L133,847.3828 L127,850.3828 L127,847.3828 " fill="#E7E7E7" style="stroke:#E7E7E7;stroke-width:1.5;"/><path d="M156,835.3828 C156,844.3828 153,847.3828 144,847.3828 " fill="none" style="stroke:#E7E7E7;stroke-width:1.5;"/><rect fill="#313139" height="26.2969" rx="5" ry="5" style="stroke:#E7E7E7;stroke-width:1.5;" width="65" x="79" y="870.5313"/><text fill="#FFFFFF" font-family="sans-serif" font-size="14" lengthAdjust="spacing" textLength="55" x="84" y="888.5264">newline</text><line style="stroke:#E7E7E7;stroke-width:1.5;" x1="144" x2="144" y1="883.6797" y2="883.6797"/><path d="M67,871.6797 C67,880.6797 70,883.6797 79,883.6797 " fill="none" style="stroke:#E7E7E7;stroke-width:1.5;"/><line style="stroke:#E7E7E7;stroke-width:1.5;" x1="67" x2="67" y1="823.0859" y2="871.6797"/><path d="M55,811.0859 C64,811.0859 67,814.0859 67,823.0859 " fill="none" style="stroke:#E7E7E7;stroke-width:1.5;"/><path d="M156,871.6797 C156,880.6797 153,883.6797 144,883.6797 " fill="none" style="stroke:#E7E7E7;stroke-width:1.5;"/><line style="stroke:#E7E7E7;stroke-width:1.5;" x1="156" x2="156" y1="823.0859" y2="871.6797"/><path d="M156,823.0859 C156,814.0859 159,811.0859 168,811.0859 " fill="none" style="stroke:#E7E7E7;stroke-width:1.5;"/><ellipse cx="14" cy="811.0859" fill="none" rx="4" ry="4" style="stroke:#E7E7E7;stroke-width:2.0;"/><ellipse cx="213" cy="811.0859" fill="#E7E7E7" rx="4" ry="4" style="stroke:#E7E7E7;stroke-width:1.0;"/><line style="stroke:#E7E7E7;stroke-width:1.5;" x1="18" x2="40" y1="811.0859" y2="811.0859"/><line style="stroke:#E7E7E7;stroke-width:1.5;" x1="183" x2="209" y1="811.0859" y2="811.0859"/><path d="M194,811.0859 L194,808.0859 L200,811.0859 L194,814.0859 L194,811.0859 " fill="#E7E7E7" style="stroke:#E7E7E7;stroke-width:1.5;"/><!--SRC=[NL7RQW8n47tFLypRAkoAbr9QbuAzs1PHa7fvg4Z9hgEDxYQIdIXM_VVEkXNRleJ9cNEPJ5ePIKiOwRaWHGd2KgOgmPMOcTYbg0dkOBBzL8JPMiOuzS54Iup9_uE6ea2PxEqz7ouj7_OhtFdWDV_16vau_0qTVU_eXK9QAtUvp-I_prbn4O0tPGNxCtylWoyum7tmpcSrkENJ-_2EGIXEEcRyZ7Y08k806Lcb5rnebqPekI3Bp0FCPP9XA2xfkNzHC4T6kGItYTAO-xTGpquB5Fr4QXhrkh11cocZeLQfL-kDIgqM8Sb6QQHNscmrn2PTyvA1L8fbKNhfTo4pphBzJEL3HOvONHOTkP7mvdJEQq9-AmrxPHYqpo2qzKPPe_EF4frnho31gw71sj29V7qLF2Y20LeU2iOzyOHpwH9YQMnc_FucZ8RFmOteIhrmSi51gCMZuG2xuzxW6m00]--></g></svg>